<svg width="84.33" height="122.88" xmlns="http://www.w3.org/2000/svg" data-name="Layer 1">

 <title>hand-holding-mobile-phone</title>
 <g>
  <title>Layer 1</title>
  <path fill="#ffffff" id="svg_1" fill-rule="evenodd" d="m75.59,28.93c3.65,-0.37 6.1,1.18 6.54,3.57c0.65,3.52 -2.77,6.1 -5.23,8c-0.43,0.33 -0.87,0.65 -1.31,0.95l0,-12.52zm-58,-16.51l0,0c5.84,-0.28 7.37,5.84 6.86,10.71c-0.3,2.87 -1.06,3.92 -2.32,6.44c-1.48,2.39 -3,4.72 -4.4,7.17l0,53.47a12.1,12.1 0 0 0 0.93,4.65a12.28,12.28 0 0 0 2.63,3.93a12.06,12.06 0 0 0 3.71,2.57l0.15,0.07a12.1,12.1 0 0 0 4.65,0.93l31.42,0c-6.13,5.75 -12.74,9.64 -20.22,9.86l-7.77,9.44c-1.68,1.54 -3.63,1.71 -6,0l-22.53,-15.08c-2.34,-1.58 -4.65,-3.15 -4.7,-6.35c0,-2.23 1.34,-4.51 3.36,-6.75a14.08,14.08 0 0 0 2,-7.18c0.17,-5.17 -2.36,-9.69 -2.73,-15.3c-0.43,-6.3 0,-14.79 1,-24.54l0.46,-13.17a7.45,7.45 0 0 1 1.17,-3.29l11.58,-17.49l0.71,-0.09l0.04,0zm57.31,42.7l0,-3.47a12.13,12.13 0 0 1 8,3.87c3,3.61 1,8.77 -2.24,11.25a4.91,4.91 0 0 1 -2.31,0.91l0.31,0.06c3.15,2.65 4.69,5.62 4.09,8.5c-0.87,4.24 -7.66,8.62 -11.74,8.92a4.65,4.65 0 0 1 -4.51,-2.22c-2.32,-3.6 1.19,-7.45 3.61,-9.84a15.89,15.89 0 0 1 4.72,-3.28l0,-2.65a5,5 0 0 1 -3.07,-3.35c-0.7,-3.18 1.34,-6.26 3.14,-8.7zm-0.35,31.15l0.27,-1.4c3.29,-0.26 5.71,0.86 6.94,3.85c0.53,3 0.22,6 -2.55,7.7c-2.61,1.58 -8.21,2.58 -10.91,0.8c-2.88,-1.9 -2.51,-5.17 -0.33,-7.49a12.06,12.06 0 0 1 6.54,-3.46l0.04,0zm-44.72,-86.27l33.62,0a9.54,9.54 0 0 1 9.55,9.54l0,41.77a1.87,1.87 0 0 0 0,0.34l0,2.86a21.88,21.88 0 0 0 -2.34,3.91a11.27,11.27 0 0 0 -0.78,2.45l0,-50.47l-46.44,0l0,2a6.85,6.85 0 0 0 -3.14,-1.8l0,-1a9.51,9.51 0 0 1 9.53,-9.6zm16.8,89.49a3.93,3.93 0 1 1 -3.92,3.92a3.91,3.91 0 0 1 3.92,-3.92zm23.2,-25.38l0,0.12a6,6 0 0 0 1.49,2.82a7.19,7.19 0 0 0 1.53,1.26l0,0.33a18,18 0 0 0 -1.64,1c-0.49,0.33 -0.95,0.7 -1.41,1.08l0,-6.61l0.03,0zm-2.12,22.39l0,0a6.09,6.09 0 0 0 0.75,0.28a12.08,12.08 0 0 0 -1.89,1.64a8.66,8.66 0 0 0 -1,1.22a7.2,7.2 0 0 0 -1.27,4.19a5.91,5.91 0 0 0 1.96,4.17a7.1,7.1 0 0 0 1,0.78l0.14,0.09a9.45,9.45 0 0 1 -3.94,0.85l-33.63,0a9.53,9.53 0 0 1 -9.53,-9.54l0,-53.74l0.14,-0.26l3,-4.85l0,55.17l44.27,0z" class="cls-1"/>
 </g>
</svg>